<svg width="120" height="19" viewBox="0 0 120 19" fill="none" xmlns="http://www.w3.org/2000/svg">
<path d="M0.756 14.5V14.32L7.722 1.828H4.23C3.57 1.828 3.03 1.912 2.61 2.08C2.202 2.248 1.896 2.518 1.692 2.89C1.5 3.25 1.386 3.736 1.35 4.348L1.296 5.356H1.098L1.224 1.648H10.8V1.828L3.834 14.32H8.064C8.712 14.32 9.24 14.236 9.648 14.068C10.056 13.9 10.362 13.63 10.566 13.258C10.77 12.886 10.896 12.4 10.944 11.8L11.016 10.792H11.196L11.07 14.5H0.756ZM15.6783 14.68C15.0783 14.68 14.5623 14.566 14.1303 14.338C13.6983 14.11 13.3683 13.786 13.1403 13.366C12.9123 12.934 12.7983 12.436 12.7983 11.872C12.7983 10.948 13.1343 10.282 13.8063 9.874C14.4783 9.466 15.4863 9.238 16.8303 9.19L18.3063 9.136V6.85C18.3063 6.322 18.2703 5.914 18.1983 5.626C18.1263 5.326 18.0123 5.116 17.8563 4.996C17.7003 4.864 17.4843 4.798 17.2083 4.798C16.8963 4.798 16.6503 4.888 16.4703 5.068C16.2903 5.236 16.1643 5.53 16.0923 5.95C16.0203 6.358 15.9843 6.928 15.9843 7.66C15.1803 7.66 14.5743 7.57 14.1663 7.39C13.7583 7.198 13.5543 6.88 13.5543 6.436C13.5543 6.004 13.7223 5.656 14.0583 5.392C14.3943 5.116 14.8443 4.918 15.4083 4.798C15.9723 4.678 16.5903 4.618 17.2623 4.618C18.5223 4.618 19.4643 4.846 20.0883 5.302C20.7243 5.758 21.0423 6.55 21.0423 7.678V13.042C21.0423 13.366 21.0723 13.624 21.1323 13.816C21.2043 13.996 21.3183 14.128 21.4743 14.212C21.6423 14.284 21.8583 14.32 22.1223 14.32H22.1943V14.5H18.3423V12.682H18.3063C18.1503 13.198 17.9403 13.6 17.6763 13.888C17.4123 14.176 17.1063 14.38 16.7583 14.5C16.4223 14.62 16.0623 14.68 15.6783 14.68ZM16.5963 14.176C16.9443 14.176 17.2443 14.044 17.4963 13.78C17.7603 13.516 17.9583 13.174 18.0903 12.754C18.2343 12.334 18.3063 11.89 18.3063 11.422V9.316L17.4963 9.352C17.0163 9.376 16.6383 9.478 16.3623 9.658C16.0863 9.826 15.8883 10.09 15.7683 10.45C15.6483 10.798 15.5883 11.254 15.5883 11.818C15.5883 12.394 15.6243 12.856 15.6963 13.204C15.7683 13.552 15.8763 13.804 16.0203 13.96C16.1763 14.104 16.3683 14.176 16.5963 14.176ZM27.2817 14.68C26.4777 14.68 25.7997 14.506 25.2477 14.158C24.7077 13.798 24.2937 13.246 24.0057 12.502C23.7297 11.758 23.5917 10.804 23.5917 9.64C23.5917 8.476 23.7297 7.528 24.0057 6.796C24.2937 6.064 24.7017 5.524 25.2297 5.176C25.7697 4.816 26.4237 4.636 27.1917 4.636C27.9117 4.636 28.5057 4.84 28.9737 5.248C29.4417 5.644 29.7417 6.262 29.8737 7.102H29.9097C29.9097 6.622 29.9037 6.178 29.8917 5.77C29.8917 5.35 29.8917 4.984 29.8917 4.672C29.8917 4.348 29.8917 4.09 29.8917 3.898V2.098C29.8917 1.774 29.8197 1.534 29.6757 1.378C29.5317 1.222 29.3577 1.12 29.1537 1.072C28.9617 1.024 28.7817 0.999999 28.6137 0.999999H28.3977V0.819999H32.6277V13.15C32.6277 13.486 32.6937 13.738 32.8257 13.906C32.9697 14.074 33.1437 14.188 33.3477 14.248C33.5517 14.296 33.7377 14.32 33.9057 14.32H34.1217V14.5H29.9097V12.034H29.8737C29.7537 12.946 29.4597 13.618 28.9917 14.05C28.5237 14.47 27.9537 14.68 27.2817 14.68ZM28.0377 14.23C28.6497 14.23 29.1117 13.822 29.4237 13.006C29.7357 12.19 29.8917 10.984 29.8917 9.388C29.8917 8.44 29.8197 7.648 29.6757 7.012C29.5317 6.376 29.3217 5.896 29.0457 5.572C28.7697 5.248 28.4217 5.086 28.0017 5.086C27.6417 5.086 27.3357 5.248 27.0837 5.572C26.8437 5.896 26.6637 6.376 26.5437 7.012C26.4237 7.648 26.3637 8.44 26.3637 9.388C26.3637 10.456 26.4237 11.35 26.5437 12.07C26.6757 12.79 26.8677 13.33 27.1197 13.69C27.3717 14.05 27.6777 14.23 28.0377 14.23ZM38.1431 14.68C37.5431 14.68 37.0271 14.566 36.5951 14.338C36.1631 14.11 35.8331 13.786 35.6051 13.366C35.3771 12.934 35.2631 12.436 35.2631 11.872C35.2631 10.948 35.5991 10.282 36.2711 9.874C36.9431 9.466 37.9511 9.238 39.2951 9.19L40.7711 9.136V6.85C40.7711 6.322 40.7351 5.914 40.6631 5.626C40.5911 5.326 40.4771 5.116 40.3211 4.996C40.1651 4.864 39.9491 4.798 39.6731 4.798C39.3611 4.798 39.1151 4.888 38.9351 5.068C38.7551 5.236 38.6291 5.53 38.5571 5.95C38.4851 6.358 38.4491 6.928 38.4491 7.66C37.6451 7.66 37.0391 7.57 36.6311 7.39C36.2231 7.198 36.0191 6.88 36.0191 6.436C36.0191 6.004 36.1871 5.656 36.5231 5.392C36.8591 5.116 37.3091 4.918 37.8731 4.798C38.4371 4.678 39.0551 4.618 39.7271 4.618C40.9871 4.618 41.9291 4.846 42.5531 5.302C43.1891 5.758 43.5071 6.55 43.5071 7.678V13.042C43.5071 13.366 43.5371 13.624 43.5971 13.816C43.6691 13.996 43.7831 14.128 43.9391 14.212C44.1071 14.284 44.3231 14.32 44.5871 14.32H44.6591V14.5H40.8071V12.682H40.7711C40.6151 13.198 40.4051 13.6 40.1411 13.888C39.8771 14.176 39.5711 14.38 39.2231 14.5C38.8871 14.62 38.5271 14.68 38.1431 14.68ZM39.0611 14.176C39.4091 14.176 39.7091 14.044 39.9611 13.78C40.2251 13.516 40.4231 13.174 40.5551 12.754C40.6991 12.334 40.7711 11.89 40.7711 11.422V9.316L39.9611 9.352C39.4811 9.376 39.1031 9.478 38.8271 9.658C38.5511 9.826 38.3531 10.09 38.2331 10.45C38.1131 10.798 38.0531 11.254 38.0531 11.818C38.0531 12.394 38.0891 12.856 38.1611 13.204C38.2331 13.552 38.3411 13.804 38.4851 13.96C38.6411 14.104 38.8331 14.176 39.0611 14.176ZM49.3435 14.5V14.32H50.0815C50.3095 14.32 50.5015 14.278 50.6575 14.194C50.8135 14.11 50.9515 13.972 51.0715 13.78C51.2035 13.588 51.3295 13.33 51.4495 13.006L55.6075 1.648H57.3715L61.4035 13.024C61.5235 13.348 61.6435 13.606 61.7635 13.798C61.8955 13.99 62.0395 14.128 62.1955 14.212C62.3515 14.284 62.5435 14.32 62.7715 14.32H62.8255V14.5H56.8855V14.32H57.8575C58.1335 14.32 58.3375 14.278 58.4695 14.194C58.6135 14.098 58.6855 13.948 58.6855 13.744C58.6855 13.672 58.6735 13.594 58.6495 13.51C58.6375 13.414 58.6195 13.312 58.5955 13.204C58.5715 13.084 58.5355 12.958 58.4875 12.826L57.4615 9.802H52.8175L51.7915 12.592C51.7315 12.748 51.6775 12.898 51.6295 13.042C51.5935 13.174 51.5635 13.294 51.5395 13.402C51.5155 13.51 51.5035 13.612 51.5035 13.708C51.5035 13.936 51.5755 14.098 51.7195 14.194C51.8635 14.278 52.0855 14.32 52.3855 14.32H53.6635V14.5H49.3435ZM52.8895 9.622H57.4075L56.2915 6.256C56.1955 5.968 56.0815 5.626 55.9495 5.23C55.8295 4.822 55.7095 4.414 55.5895 4.006C55.4815 3.586 55.3915 3.226 55.3195 2.926C55.2475 3.142 55.1635 3.388 55.0675 3.664C54.9715 3.94 54.8695 4.228 54.7615 4.528C54.6535 4.828 54.5455 5.116 54.4375 5.392C54.3415 5.668 54.2515 5.914 54.1675 6.13L52.8895 9.622ZM63.1662 14.5V14.32H63.5622C63.7422 14.32 63.9282 14.296 64.1202 14.248C64.3242 14.188 64.4922 14.074 64.6242 13.906C64.7682 13.738 64.8402 13.486 64.8402 13.15V5.032H63.2382V4.852H64.8402V4.186C64.8402 3.07 65.1342 2.206 65.7222 1.594C66.3222 0.969999 67.3482 0.657999 68.8002 0.657999C69.4602 0.657999 69.9882 0.717999 70.3842 0.837999C70.7802 0.957999 71.0682 1.12 71.2482 1.324C71.4282 1.516 71.5182 1.744 71.5182 2.008C71.5182 2.26 71.4342 2.47 71.2662 2.638C71.1102 2.806 70.8642 2.932 70.5282 3.016C70.2042 3.1 69.7962 3.142 69.3042 3.142C69.3042 2.554 69.2742 2.098 69.2142 1.774C69.1662 1.438 69.0762 1.198 68.9442 1.054C68.8242 0.909999 68.6562 0.837999 68.4402 0.837999C68.1162 0.837999 67.8882 0.993999 67.7562 1.306C67.6362 1.618 67.5762 2.188 67.5762 3.016V4.852H70.0602V5.032H67.5762V13.15C67.5762 13.486 67.6422 13.738 67.7742 13.906C67.9182 14.074 68.0922 14.188 68.2962 14.248C68.5002 14.296 68.6862 14.32 68.8542 14.32H69.7002V14.5H63.1662ZM70.5143 14.5V14.32H70.6763C70.8563 14.32 71.0423 14.296 71.2343 14.248C71.4383 14.188 71.6063 14.074 71.7383 13.906C71.8823 13.738 71.9543 13.486 71.9543 13.15V6.13C71.9543 5.806 71.8823 5.566 71.7383 5.41C71.5943 5.254 71.4203 5.152 71.2163 5.104C71.0243 5.056 70.8443 5.032 70.6763 5.032H70.6043V4.852H74.6903V6.4H74.7263C74.8583 6.004 75.0323 5.68 75.2483 5.428C75.4643 5.164 75.7343 4.966 76.0583 4.834C76.3943 4.702 76.7843 4.636 77.2283 4.636C77.9003 4.636 78.4103 4.774 78.7583 5.05C79.1183 5.326 79.2983 5.71 79.2983 6.202C79.2983 6.718 79.0943 7.12 78.6863 7.408C78.2783 7.696 77.7203 7.84 77.0123 7.84C77.0123 7.228 76.9703 6.748 76.8863 6.4C76.8023 6.052 76.6823 5.806 76.5263 5.662C76.3823 5.518 76.1963 5.446 75.9683 5.446C75.7883 5.446 75.6203 5.494 75.4643 5.59C75.3083 5.686 75.1703 5.848 75.0503 6.076C74.9423 6.292 74.8523 6.586 74.7803 6.958C74.7203 7.318 74.6903 7.774 74.6903 8.326V13.15C74.6903 13.486 74.7563 13.738 74.8883 13.906C75.0323 14.074 75.2063 14.188 75.4103 14.248C75.6143 14.296 75.8003 14.32 75.9683 14.32H76.5263V14.5H70.5143ZM79.8822 14.5V14.32H80.0982C80.2782 14.32 80.4642 14.296 80.6562 14.248C80.8602 14.188 81.0282 14.074 81.1602 13.906C81.3042 13.738 81.3762 13.486 81.3762 13.15V6.13C81.3762 5.806 81.3042 5.566 81.1602 5.41C81.0162 5.254 80.8422 5.152 80.6382 5.104C80.4462 5.056 80.2662 5.032 80.0982 5.032H79.8822V4.852H84.1122V13.15C84.1122 13.486 84.1782 13.738 84.3102 13.906C84.4542 14.074 84.6282 14.188 84.8322 14.248C85.0362 14.296 85.2222 14.32 85.3902 14.32H85.6062V14.5H79.8822ZM82.6542 3.232C82.3062 3.232 82.0062 3.13 81.7542 2.926C81.5142 2.71 81.3942 2.38 81.3942 1.936C81.3942 1.48 81.5202 1.15 81.7722 0.946C82.0242 0.741999 82.3242 0.639999 82.6722 0.639999C83.0082 0.639999 83.3022 0.741999 83.5542 0.946C83.8062 1.15 83.9322 1.48 83.9322 1.936C83.9322 2.38 83.8062 2.71 83.5542 2.926C83.3022 3.13 83.0022 3.232 82.6542 3.232ZM91.2503 18.82V18.64H91.7543C91.9343 18.64 92.1203 18.61 92.3123 18.55C92.5163 18.502 92.6843 18.394 92.8163 18.226C92.9603 18.058 93.0323 17.806 93.0323 17.47V14.14C93.0323 13.864 93.0323 13.612 93.0323 13.384C93.0323 13.156 93.0323 12.934 93.0323 12.718C93.0443 12.502 93.0503 12.274 93.0503 12.034H93.0143C92.9303 12.634 92.7683 13.132 92.5283 13.528C92.2883 13.924 91.9883 14.218 91.6283 14.41C91.2803 14.59 90.8783 14.68 90.4223 14.68C89.2223 14.68 88.3043 14.278 87.6683 13.474C87.0443 12.658 86.7323 11.38 86.7323 9.64C86.7323 8.476 86.8703 7.528 87.1463 6.796C87.4343 6.064 87.8423 5.524 88.3703 5.176C88.9103 4.816 89.5643 4.636 90.3323 4.636C91.0523 4.636 91.6463 4.84 92.1143 5.248C92.5823 5.644 92.8823 6.262 93.0143 7.102H93.0503V4.852H97.3343V5.032H97.0463C96.8783 5.032 96.6923 5.056 96.4883 5.104C96.2963 5.152 96.1283 5.254 95.9843 5.41C95.8403 5.566 95.7683 5.806 95.7683 6.13V17.47C95.7683 17.806 95.8343 18.058 95.9663 18.226C96.1103 18.394 96.2843 18.502 96.4883 18.55C96.6923 18.61 96.8783 18.64 97.0463 18.64H97.5503V18.82H91.2503ZM91.1783 14.23C91.4903 14.23 91.7603 14.128 91.9883 13.924C92.2163 13.72 92.4083 13.414 92.5643 13.006C92.7203 12.598 92.8343 12.094 92.9063 11.494C92.9903 10.894 93.0323 10.192 93.0323 9.388C93.0323 8.44 92.9603 7.648 92.8163 7.012C92.6723 6.376 92.4623 5.896 92.1863 5.572C91.9103 5.248 91.5623 5.086 91.1423 5.086C90.7823 5.086 90.4763 5.248 90.2243 5.572C89.9843 5.896 89.8043 6.376 89.6843 7.012C89.5643 7.648 89.5043 8.44 89.5043 9.388C89.5043 10.456 89.5643 11.35 89.6843 12.07C89.8163 12.79 90.0083 13.33 90.2603 13.69C90.5123 14.05 90.8183 14.23 91.1783 14.23ZM102.436 14.68C101.38 14.68 100.594 14.404 100.078 13.852C99.5622 13.3 99.3042 12.418 99.3042 11.206V6.31C99.3042 5.938 99.2562 5.662 99.1602 5.482C99.0762 5.302 98.9442 5.182 98.7642 5.122C98.5962 5.062 98.3742 5.032 98.0982 5.032H98.0442V4.852H102.04V11.8C102.04 12.316 102.082 12.748 102.166 13.096C102.262 13.444 102.406 13.708 102.598 13.888C102.802 14.056 103.066 14.14 103.39 14.14C103.822 14.14 104.158 13.996 104.398 13.708C104.638 13.42 104.806 13.018 104.902 12.502C104.998 11.986 105.046 11.392 105.046 10.72V6.202C105.046 5.854 104.974 5.602 104.83 5.446C104.698 5.278 104.53 5.17 104.326 5.122C104.134 5.062 103.948 5.032 103.768 5.032H103.696V4.852H107.782V13.222C107.782 13.534 107.854 13.774 107.998 13.942C108.142 14.098 108.31 14.2 108.502 14.248C108.706 14.296 108.892 14.32 109.06 14.32H109.132V14.5H105.046V12.808H105.01C104.902 13.204 104.758 13.528 104.578 13.78C104.398 14.032 104.194 14.224 103.966 14.356C103.738 14.476 103.492 14.56 103.228 14.608C102.964 14.656 102.7 14.68 102.436 14.68ZM115.18 14.68C113.62 14.68 112.438 14.248 111.634 13.384C110.83 12.508 110.428 11.29 110.428 9.73C110.428 8.038 110.818 6.766 111.598 5.914C112.378 5.05 113.476 4.618 114.892 4.618C116.2 4.618 117.226 4.984 117.97 5.716C118.726 6.448 119.104 7.528 119.104 8.956V9.388H113.2C113.2 10.6 113.278 11.584 113.434 12.34C113.602 13.084 113.86 13.63 114.208 13.978C114.568 14.314 115.03 14.482 115.594 14.482C116.014 14.482 116.392 14.392 116.728 14.212C117.076 14.032 117.364 13.744 117.592 13.348C117.832 12.952 117.988 12.424 118.06 11.764C118.3 11.812 118.468 11.914 118.564 12.07C118.672 12.226 118.726 12.406 118.726 12.61C118.726 12.946 118.594 13.276 118.33 13.6C118.066 13.912 117.67 14.17 117.142 14.374C116.626 14.578 115.972 14.68 115.18 14.68ZM116.368 9.208C116.368 8.116 116.326 7.252 116.242 6.616C116.158 5.968 116.008 5.506 115.792 5.23C115.576 4.942 115.276 4.798 114.892 4.798C114.508 4.798 114.19 4.942 113.938 5.23C113.686 5.506 113.5 5.968 113.38 6.616C113.272 7.252 113.212 8.116 113.2 9.208H116.368Z" fill="#121712"/>
</svg>
